<svg width="244" height="244" viewBox="0 0 244 244" fill="none" xmlns="http://www.w3.org/2000/svg">
<path d="M188.726 133.387C185.89 131.75 182.633 130.989 179.366 131.199L159.223 132.502C148.181 133.214 137.693 137.586 129.414 144.927L127.206 146.875C118.928 154.216 108.44 158.588 97.3983 159.301L81.103 160.353C78.3791 160.529 75.7407 161.375 73.4221 162.816C71.1035 164.256 69.1762 166.247 67.8113 168.611M72.663 66.3785L136.741 49.2088L130.878 59.3648L141.978 100.791C143.117 105.039 145.897 108.661 149.706 110.859L200.486 140.177C213.283 147.565 210.753 166.735 196.48 170.56L81.5954 201.343C67.322 205.167 55.5544 189.829 62.9424 177.032L92.2603 126.252C94.4599 122.444 95.0567 117.917 93.9192 113.669L82.819 72.2421L72.663 66.3785Z" stroke="#1B2944" stroke-width="9" stroke-linecap="round" stroke-linejoin="round"/>
</svg>
