<svg width="136" height="136" viewBox="0 0 136 136" fill="none" xmlns="http://www.w3.org/2000/svg">
<g clip-path="url(#clip0_2789_4067)">
<path d="M114.908 63.1844C104.234 46.4129 95.3818 36.425 89.8111 30.9815C86.0123 27.2695 80.4807 26.5595 75.6476 28.7618C70.1809 31.2528 62.0972 35.2216 52.2531 40.905C42.4092 46.5884 34.9303 51.6048 30.0397 55.0935C25.7158 58.178 23.5648 63.3236 24.8802 68.4694C26.8091 76.0155 31.033 88.6753 40.2201 106.306C43.9889 113.538 51.9471 117.446 59.01 113.369C59.9466 112.828 60.8079 112.291 61.5978 111.766C67.0633 108.132 68.4277 101.342 67.0817 94.9186L67.0294 94.6684C66.5807 92.5273 67.0123 90.289 68.578 88.7608C70.1806 87.1966 72.7291 85.0841 76.5022 82.9057C80.2752 80.7273 83.3792 79.5764 85.5351 78.9706C87.6414 78.3788 89.7956 79.1241 91.4256 80.5833L91.6159 80.7538C96.5063 85.1313 103.068 87.3443 108.948 84.4282C109.798 84.0067 110.693 83.5292 111.63 82.9884C118.693 78.9107 119.287 70.0643 114.908 63.1844Z" stroke="#1B2944" stroke-width="8" stroke-linecap="round" stroke-linejoin="round"/>
<path d="M44.4138 64.5269L52.6806 78.8453" stroke="#1B2944" stroke-width="8" stroke-linecap="round" stroke-linejoin="round"/>
<path d="M55.7063 67.5527L41.3879 75.8194" stroke="#1B2944" stroke-width="8" stroke-linecap="round" stroke-linejoin="round"/>
<path d="M83.8635 58.4554L84.8969 60.2452" stroke="#1B2944" stroke-width="8" stroke-linecap="round" stroke-linejoin="round"/>
<path d="M75.3943 56.186L73.6045 57.2193" stroke="#1B2944" stroke-width="8" stroke-linecap="round" stroke-linejoin="round"/>
<path d="M76.6301 45.9268L77.6635 47.7166" stroke="#1B2944" stroke-width="8" stroke-linecap="round" stroke-linejoin="round"/>
<path d="M87.9229 48.9526L86.1331 49.9859" stroke="#1B2944" stroke-width="8" stroke-linecap="round" stroke-linejoin="round"/>
</g>
<defs>
<clipPath id="clip0_2789_4067">
<rect width="99.2008" height="99.2008" fill="white" transform="translate(0 49.6004) rotate(-30)"/>
</clipPath>
</defs>
</svg>
