<svg width="221" height="218" viewBox="0 0 221 218" fill="none" xmlns="http://www.w3.org/2000/svg">
  <path d="M70 70C70 46 89 32 105 32C121 32 134 44 134 66V110" stroke="#1B2944" stroke-width="12" stroke-linecap="round" stroke-linejoin="round"/>
  <path d="M134 80C134 60 151 52 167 52C183 52 196 63 196 84V142" stroke="#1B2944" stroke-width="12" stroke-linecap="round" stroke-linejoin="round"/>
  <path d="M52 108C52 90 66 78 84 78C103 78 116 91 118 108M118 108L118 154C118 170 130 182 146 182C162 182 174 170 174 154V134" stroke="#1B2944" stroke-width="12" stroke-linecap="round" stroke-linejoin="round"/>
  <path d="M40 134C44 162 71 188 111 188H148" stroke="#1B2944" stroke-width="12" stroke-linecap="round" stroke-linejoin="round"/>
</svg>

