<svg width="41" height="58" viewBox="0 0 41 58" fill="none" xmlns="http://www.w3.org/2000/svg">
  <path d="M6 20H28C30.7614 20 33 22.2386 33 25V34C33 42.8366 25.8366 50 17 50C8.16344 50 1 42.8366 1 34V25C1 22.2386 3.23858 20 6 20Z" stroke="#153556" stroke-width="5" stroke-linecap="round" stroke-linejoin="round"/>
  <path d="M33 26H36C37.6569 26 39 27.3431 39 29V32C39 35.3137 36.3137 38 33 38" stroke="#153556" stroke-width="5" stroke-linecap="round" stroke-linejoin="round"/>
  <path d="M13 12C13 8 18 9 18 5" stroke="#153556" stroke-width="5" stroke-linecap="round"/>
  <path d="M22 12C22 8 27 9 27 5" stroke="#153556" stroke-width="5" stroke-linecap="round"/>
</svg>

