<svg width="35" height="36" viewBox="0 0 35 36" fill="none" xmlns="http://www.w3.org/2000/svg">
<path d="M1.74663 35.7453C0.905071 35.6857 0.487275 35.4677 0.195377 34.936C-0.0143252 34.5539 -0.056597 34.1019 0.0752303 33.6511C0.135683 33.4444 0.548802 32.6682 1.13661 31.657C1.66593 30.7464 2.70563 28.9533 3.44704 27.6725C4.58292 25.7102 4.81346 25.3463 4.91192 25.3602C5.12243 25.3901 5.91617 26.8173 7.79326 30.5411C9.41973 33.7677 10.221 35.4937 10.1332 35.5817C10.0112 35.7042 3.07541 35.8395 1.74663 35.7453Z" fill="#F8FAFC"/>
<path d="M9.04621 26.6081C8.8019 26.3481 7.45735 23.6784 7.00926 22.5637C6.91742 22.3352 6.84229 22.0859 6.84229 22.0097C6.84229 21.8062 6.99121 21.5411 10.8011 14.962C12.721 11.6468 14.466 8.60039 14.6791 8.19218C15.3228 6.95861 15.4332 6.38455 15.1691 5.64277C15.0947 5.43383 14.6681 4.6222 14.221 3.83915C13.102 1.87904 13.0536 1.75585 13.1749 1.17624C13.3243 0.462986 13.8783 -0.00110417 14.5792 1.97301e-06C15.2908 0.00112427 15.6958 0.320619 16.3145 1.36871C17.2158 2.89573 17.4252 3.22625 17.5003 3.24032C17.5513 3.24988 17.7498 2.95651 18.037 2.44724C18.9199 0.881316 19.3671 0.31294 19.8486 0.144622C20.8928 -0.220455 21.8899 0.563622 21.7996 1.6789C21.7654 2.10192 21.787 2.05857 20.4242 4.43482C19.8265 5.47694 19.3375 6.37153 19.3375 6.42279C19.3375 6.53479 19.6819 7.15837 21.1976 9.79076C22.6154 12.2531 22.7348 12.4927 22.7348 12.8766C22.7348 13.4198 22.8523 13.2926 16.1865 19.9654C11.1195 25.0378 9.39001 26.7186 9.23783 26.7186C9.18954 26.7186 9.10331 26.6689 9.04621 26.6081V26.6081Z" fill="#F8FAFC"/>
<path d="M30.019 27.2942C27.8695 26.61 17.8246 23.3376 17.6437 23.2627C17.5325 23.2166 17.413 23.1259 17.378 23.0611C17.3232 22.9597 17.3484 22.9057 17.5571 22.6756C18.1761 21.9933 24.2286 16.002 24.3892 15.9125C24.5655 15.8143 24.5739 15.8147 24.68 15.9277C24.7402 15.9917 24.9849 16.3712 25.2239 16.7711C25.9643 18.0098 30.7994 26.3769 31.0699 26.8876L31.3259 27.3706L31.1987 27.4728C31.1287 27.5289 31.029 27.5736 30.9771 27.572C30.9252 27.5705 30.4941 27.4455 30.019 27.2942V27.2942Z" fill="#F8FAFC"/>
<path d="M21.4397 35.7907C15.0143 35.7562 14.7906 35.7484 14.1455 35.5359C13.7587 35.4085 13.2947 34.9691 12.9506 34.4043C12.6664 33.9377 10.7629 30.1745 10.6529 29.8617C10.5983 29.7064 10.6231 29.666 11.0989 29.1356C11.8108 28.3421 13.7369 26.3934 14.3679 25.8284C14.8591 25.3885 14.9114 25.3565 15.0601 25.4046C15.1485 25.4333 19.1468 26.728 23.945 28.2818C28.7433 29.8355 32.8973 31.1887 33.1761 31.2887C33.7798 31.5053 33.7916 31.5195 34.3288 32.6852C34.792 33.69 35.0002 34.2608 35.0002 34.5255C35.0002 34.9933 34.5503 35.5391 34.0276 35.7056C33.6854 35.8146 30.2303 35.8379 21.4397 35.7907V35.7907Z" fill="#F8FAFC"/>
</svg>
