<svg width="35" height="36" viewBox="0 0 35 36" fill="none" xmlns="http://www.w3.org/2000/svg">
<path d="M1.74078 35.9311C0.902041 35.8712 0.485643 35.6521 0.194723 35.1175C-0.0142773 34.7335 -0.0564075 34.2791 0.0749784 33.826C0.135228 33.6182 0.546965 32.838 1.13281 31.8215C1.66036 30.9062 2.69657 29.1038 3.4355 27.8163C4.56757 25.8438 4.79734 25.478 4.89548 25.4921C5.10528 25.5221 5.89636 26.9567 7.76716 30.6998C9.38819 33.9432 10.1868 35.6782 10.0993 35.7667C9.97764 35.8898 3.06511 36.0258 1.74078 35.9311Z" fill="#1E293B"/>
<path d="M9.01612 26.7463C8.77263 26.485 7.43258 23.8015 6.98599 22.6809C6.89447 22.4512 6.81958 22.2007 6.81958 22.1241C6.81958 21.9195 6.96801 21.653 10.7652 15.0397C12.6786 11.7073 14.4178 8.64507 14.6301 8.23474C15.2717 6.99476 15.3817 6.41772 15.1185 5.67209C15.0444 5.46206 14.6192 4.64621 14.1736 3.85909C13.0583 1.8888 13.0101 1.76497 13.131 1.18235C13.2799 0.465391 13.8321 -0.00110991 14.5306 1.98326e-06C15.2398 0.00113011 15.6435 0.322285 16.26 1.37582C17.1584 2.91077 17.3671 3.24301 17.4419 3.25715C17.4927 3.26676 17.6906 2.97187 17.9768 2.45995C18.8568 0.885894 19.3025 0.314566 19.7823 0.145374C20.8231 -0.2216 21.8168 0.56655 21.7268 1.68762C21.6927 2.11284 21.7143 2.06927 20.356 4.45786C19.7603 5.50539 19.273 6.40463 19.273 6.45616C19.273 6.56873 19.6162 7.19556 21.1269 9.84162C22.5399 12.3167 22.6589 12.5576 22.6589 12.9435C22.6589 13.4895 22.776 13.3616 16.1326 20.0691C11.0825 25.1679 9.35878 26.8574 9.2071 26.8574C9.15898 26.8574 9.07304 26.8074 9.01612 26.7463Z" fill="#1E293B"/>
<path d="M29.9187 27.4362C27.7764 26.7484 17.7651 23.459 17.5848 23.3837C17.4741 23.3374 17.3549 23.2462 17.32 23.181C17.2655 23.0791 17.2905 23.0248 17.4985 22.7936C18.1155 22.1077 24.1477 16.0853 24.3078 15.9954C24.4835 15.8966 24.4919 15.8971 24.5976 16.0106C24.6576 16.0749 24.9015 16.4564 25.1397 16.8583C25.8776 18.1035 30.6965 26.5141 30.9661 27.0274L31.2212 27.513L31.0945 27.6156C31.0248 27.6721 30.9254 27.717 30.8737 27.7154C30.8219 27.7139 30.3922 27.5882 29.9187 27.4362Z" fill="#1E293B"/>
<path d="M21.3679 35.9767C14.964 35.942 14.7411 35.9342 14.0981 35.7206C13.7126 35.5926 13.2501 35.1508 12.9072 34.5831C12.6239 34.1141 10.7268 30.3313 10.6172 30.0169C10.5628 29.8608 10.5875 29.8202 11.0617 29.2871C11.7712 28.4894 13.6909 26.5306 14.3197 25.9627C14.8093 25.5205 14.8615 25.4883 15.0096 25.5367C15.0978 25.5655 19.0826 26.8669 23.8648 28.4288C28.647 29.9906 32.7871 31.3507 33.065 31.4513C33.6667 31.669 33.6784 31.6833 34.2138 32.855C34.6754 33.8651 34.8829 34.4388 34.8829 34.7049C34.8829 35.1752 34.4346 35.7238 33.9136 35.8911C33.5726 36.0007 30.1291 36.0242 21.3679 35.9767Z" fill="#1E293B"/>
</svg>
