<svg width="270" height="268" viewBox="0 0 270 268" fill="none" xmlns="http://www.w3.org/2000/svg">
<path d="M16.8137 167.227C17.1468 167.363 17.4367 167.487 17.7813 167.579C20.4951 168.306 22.8565 166.903 24.2527 163.76C24.4777 163.265 24.7026 162.77 24.9707 162.286C25.2619 161.716 25.5531 161.147 25.8012 160.565C26.7821 158.283 27.8061 156.012 28.7755 153.773C31.9284 146.658 35.2485 139.264 37.5348 131.593C37.8786 130.482 38.1794 129.36 38.5233 128.249C40.2459 122.509 41.9832 116.542 44.0735 110.809C50.5064 93.0038 58.0362 75.5853 66.5124 59.1145L67.1958 57.7705C70.0962 52.1153 73.0859 46.2988 76.6094 40.9031C78.3984 38.1894 80.1096 35.5936 82.8734 34.0666C84.4466 33.1924 85.6739 32.9197 86.7078 33.1967C87.7847 33.4853 88.7196 34.4762 89.5439 36.2242C90.8062 38.9225 90.7003 41.9021 90.4286 44.4671C89.1951 56.3073 86.1461 68.0312 81.1824 80.3528C79.7683 83.9073 78.1407 87.9138 76.2463 91.7099C75.0468 94.1188 75.2669 96.399 76.8814 98.1274C77.6671 98.9858 78.62 99.565 79.6538 99.842C80.5585 100.084 81.5755 100.079 82.5958 99.8899C84.8981 99.3962 85.9787 97.6033 86.8439 95.7527C93.0309 82.1393 97.0078 70.5714 99.3548 59.3998C99.6125 58.2656 99.698 57.0853 99.8149 55.9598C100.026 53.795 100.202 51.7597 101.224 50.1827C102.169 48.7236 102.965 47.1321 103.726 45.6701C104.51 44.1217 105.217 42.6913 106.139 41.3187C107.516 39.2812 108.872 37.8397 110.522 36.8475C111.572 36.2033 111.94 36.2093 112.069 36.2439C112.155 36.267 112.52 36.4572 112.807 37.9689C113.907 43.1689 113.094 48.2727 112.121 52.5933L111.805 53.9433C108.964 66.7873 106.007 80.063 102.289 92.9035C102.104 93.5943 101.919 94.2851 101.746 94.9328C101.618 95.4077 101.491 95.8827 101.364 96.3576C100.866 98.2142 101.401 99.8382 102.967 101.23C103.713 101.892 104.548 102.394 105.453 102.636C108.037 103.329 110.591 102.069 111.739 99.5078C112.177 98.5609 112.389 97.5995 112.643 96.6496C112.701 96.4337 112.77 96.1747 112.828 95.9588C116.571 81.6443 120.442 66.8548 124.316 51.8811C125.186 48.4586 126.124 44.9613 128.691 42.2712C130.476 40.4355 132.445 39.8063 134.697 40.3633L134.74 40.3748C136.635 40.8827 137.279 42.4435 137.726 44.7382C138.022 46.3909 138.172 47.7268 138.118 48.9618C137.902 53.9019 137.132 59.0173 135.755 64.1553C133.603 72.1861 130.566 80.0724 127.599 87.6997L126.987 89.2942C126.728 89.9188 126.523 90.5117 126.263 91.1363C124.791 94.9068 123.284 98.8068 121.973 102.667C121.026 105.513 122.414 108.43 125.294 109.572C125.497 109.673 125.67 109.719 125.885 109.777C128.211 110.4 130.621 109.334 131.981 107.014C132.494 106.134 132.952 105.285 133.215 104.476C133.602 103.376 134.032 102.288 134.462 101.2C135.675 98.0544 136.89 94.7243 137.953 91.4458C140.071 84.7479 143.507 80.0229 148.74 76.5196C156.489 71.3769 163.493 69.8756 170.773 71.8262C171.721 72.0802 172.7 72.3888 173.613 72.7723C181.308 75.7596 184.484 79.7575 184.648 86.5576L184.644 86.7419C184.687 88.6506 184.668 89.7561 183.368 90.4721C182.821 90.7885 182.344 90.8457 181.784 90.6957C181.138 90.5226 180.432 90.0558 179.801 89.6552L179.287 89.3324C177.126 87.9204 174.891 86.4422 172.62 85.0934C170.864 84.0674 169.081 83.3121 167.229 82.8157C163.007 81.6846 158.674 82.0043 154.694 83.7609C151.129 85.3507 148.064 88.0003 146.039 91.2522C140.463 100.171 137.262 110.049 136.517 120.585C136.41 122.362 136.531 124.152 136.893 125.73C137.902 129.888 139.325 134.573 143.172 137.964C134.83 138.598 126.649 140.524 118.708 142.422C117.523 142.707 116.382 143.002 115.21 143.244C114.025 143.528 112.646 143.852 111.286 144.275C109.121 144.944 107.86 146.55 107.833 148.718C107.783 150.972 109.018 152.737 111.264 153.663C111.51 153.775 111.812 153.856 112.07 153.925C113.32 154.26 114.661 154.249 116.193 153.873C118.171 153.385 120.442 152.836 122.701 152.331L123.69 152.087C133.782 149.747 144.264 147.327 154.936 148.335C157.452 148.593 159.998 148.396 162.478 148.273C163.139 148.219 163.745 148.197 164.406 148.142C173.957 147.647 182.772 139.736 184.035 130.541C184.381 128.043 184.435 125.604 184.442 123.338C184.425 123.056 184.451 122.786 184.434 122.504C184.446 119.36 184.411 116.389 185.542 113.545C186.708 110.572 188.679 109.249 191.091 109.895C191.909 110.114 192.799 110.584 193.686 111.238C196.848 113.566 198.284 116.821 198.204 121.427C198.094 128.385 197.778 136.63 196.37 144.814C195.383 150.565 194.044 157.287 191.639 163.676C188.94 170.82 184.334 177.499 177.545 184.056C171.999 189.419 165.887 194.307 159.963 199.013C157.67 200.851 155.311 202.764 153.006 204.645C144.665 211.48 136.029 219.07 130.204 229.263C128.619 232.078 126.8 235.246 126.013 238.876C125.355 241.847 126.592 244.122 129.397 245.197C129.57 245.244 129.73 245.333 129.903 245.379C132.229 246.002 134.506 245.085 135.883 243.048C136.194 242.576 136.376 242.07 136.558 241.563C136.67 241.315 136.728 241.1 136.829 240.895C140.421 232.834 145.639 225.763 152.353 219.834C156.649 216.034 161.227 212.216 166.351 208.082L167.537 207.104C174.198 201.716 181.132 196.17 187.32 189.961C195.005 182.302 200.191 173.974 203.179 164.547C207.059 152.306 208.976 139.121 209.148 122.971C209.222 116.836 207.732 111.716 204.739 107.721C201.778 103.781 197.296 100.868 191.429 99.157L191.127 99.0763L190.866 99.1912C190.811 99.2229 190.768 99.2113 190.713 99.243C193.763 96.8208 195.444 93.4766 195.721 89.3397C196.166 81.8232 194.076 75.6639 189.396 71.0778C185.045 66.8114 179.43 63.6411 173.227 61.979C165.258 59.8437 157.026 60.4144 150.078 63.597C149.664 63.7637 149.282 63.9852 148.899 64.2066C148.298 64.5546 147.709 64.8594 147.099 65.0663C147.244 64.1797 147.39 63.2931 147.523 62.4496C148.005 59.6171 148.441 56.9572 148.802 54.2311C149.972 46.0759 148.362 41.5723 147.045 38.9056C144.892 34.5341 141.65 31.8144 137.127 30.6024C137.041 30.5793 136.955 30.5562 136.869 30.5332C132.15 29.3614 127.463 30.1415 122.643 32.9685C120.265 29.092 117.846 26.917 115.003 26.1552C110.997 25.0817 106.208 26.76 99.0877 31.7937C99.0247 31.6843 98.9302 31.5201 98.8041 31.3013C98.7212 31.0939 98.5836 30.9182 98.4576 30.6993C95.9589 26.9293 92.5846 24.3592 88.7077 23.3204C83.4954 21.9238 77.8642 23.4691 73.3577 27.5371C71.1044 29.5711 69.1263 31.9565 67.2248 34.9177C61.0503 44.6936 55.9116 55.256 50.9633 65.4529C50.4239 66.6041 49.8531 67.7007 49.3138 68.8519C42.8863 81.9844 37.1436 96.1796 32.2444 111.017C31.3086 113.821 30.4042 116.679 29.523 119.451C26.1022 130.15 22.5889 141.194 17.5628 151.509C17.2484 152.165 16.9341 152.821 16.6197 153.477C15.6221 155.478 14.6128 157.521 13.7328 159.599C12.4144 162.624 13.6672 165.875 16.8137 167.227ZM172.625 113.508C172.166 116.254 172.149 119.073 172.124 121.75C172.127 123.463 172.118 125.219 171.98 126.941C171.706 130.893 169.534 133.829 165.785 135.415C163.442 136.407 160.906 137.255 158.623 136.643C157.761 136.412 156.958 135.966 156.2 135.346C151.294 131.255 148.936 126.273 148.924 120.115C148.93 114.749 150.973 109.882 152.927 105.176C153.175 104.595 153.423 104.013 153.671 103.432C157.725 93.6432 161.671 93.2196 164.988 94.1083C166.797 94.5931 168.91 95.6682 171.357 97.3885C173.495 98.8868 176.009 100.532 178.938 101.317C179.154 101.375 179.369 101.433 179.584 101.49C175.854 103.869 173.612 107.757 172.625 113.508Z" fill="#1B2944"/>
<path d="M212.192 89.7271C211.325 89.8647 210.468 89.9592 209.64 90.2926C207.898 90.9364 206.686 92.1851 206.344 93.8057C205.948 95.458 206.502 97.1799 207.853 98.5137C208.575 99.2627 209.422 99.7209 210.37 99.9749C211.705 100.333 213.125 100.204 214.427 99.9975C227.204 98.1457 240.184 97.0885 252.37 96.2353C253.876 96.1297 255.221 95.9348 256.448 95.662C259.044 95.108 260.443 93.6781 260.645 91.3722C260.851 88.8821 259.019 86.5864 256.167 85.6836L256.038 85.6489L255.897 85.6575C255.756 85.666 255.627 85.6314 255.443 85.6284C254.946 85.5878 254.265 85.5442 253.55 85.6301C251.946 85.7558 250.343 85.8815 248.74 86.0071C236.812 86.9296 224.45 87.921 212.388 89.6869L212.192 89.7271Z" fill="#1B2944"/>
<path d="M200.871 75.6336C200.958 75.6566 201.044 75.6797 201.13 75.7028C203.111 76.2338 204.951 75.5699 206.845 73.671C210.434 70.0976 214.365 66.8008 218.175 63.6104C219.372 62.5892 220.612 61.5794 221.82 60.515C222.479 59.9511 223.193 59.3556 223.852 58.7918C225.521 57.3879 227.256 55.9092 228.948 54.419C230.882 52.7159 231.319 50.5656 230.068 48.5179C229.111 46.9195 227.98 45.9688 226.559 45.5879C225.913 45.4147 225.189 45.3596 224.419 45.4772C222.847 45.6576 221.461 46.3505 220.022 47.5847C213.783 52.9471 206.656 59.0431 199.758 64.9694C199.384 65.3319 199.065 65.6628 198.734 66.0368C198.469 66.3361 198.204 66.6353 197.908 66.8798C196.633 68.0191 196.095 69.6799 196.477 71.3557C197.068 73.4576 198.718 75.0564 200.871 75.6336Z" fill="#1B2944"/>
</svg>
