<svg width="249" height="184" viewBox="0 0 249 184" fill="none" xmlns="http://www.w3.org/2000/svg">
<path d="M4.00056 179.979C28.6298 142.925 64.4589 108.395 105.547 93.766C116.72 89.7879 171.041 70.1734 174.842 93.6021C176.663 104.823 164.682 104.721 157.964 102.206C144.739 97.2571 134.641 92.0762 124.213 81.287C108.118 64.6333 88.8569 36.6656 104.845 14.0413C111.744 4.27705 128.339 6.50158 137.042 11.424C145.574 16.2501 151.858 23.2006 158.818 30.2129C164.474 35.9124 163.13 35.4588 165.502 27.6619C171.456 8.09219 197.697 -9.23445 207.176 18.2931C212.494 33.7378 209.884 48.3199 207.741 63.6606C206.936 69.423 205.855 79.3883 202.937 84.3183C199.76 89.6858 196.401 82.4936 197.12 78.2558C198.91 67.7198 202.815 62.6676 212.755 61.0548C221.744 59.5961 234.895 65.2025 237.253 76.1433C238.561 82.2134 239.753 80.4829 240.932 75.5464C241.846 71.7166 242.169 59.903 242.807 63.8365C243.032 65.2223 244.822 76.7058 243.698 77.7044C239.696 81.2597 233.646 82.2952 229.141 84.7915" stroke="#1B2944" stroke-width="8" stroke-linecap="round"/>
</svg>
