<svg width="259" height="218" viewBox="0 0 259 218" fill="none" xmlns="http://www.w3.org/2000/svg">
<path d="M185.401 118.73C178.977 123.525 171.513 127.263 161.922 130.546C160.406 131.041 159.697 131.721 159.156 133.025C157.533 137.113 155.259 140.93 153.076 144.59L152.426 145.655C146.892 154.935 139.407 162.421 130.188 167.921C124.844 171.091 118.955 173.56 112.761 175.219C105.195 177.247 97.0152 178.146 87.7638 178.041L87.7222 178.052C86.0726 178.049 84.997 178.025 84.3318 178.203C83.5004 178.426 83.2792 178.931 82.2929 181.735L82.2432 181.882C77.9689 194.032 71.6143 202.909 62.7502 209.071C58.6118 211.918 54.5415 213.855 50.3012 214.991C49.553 215.192 48.752 215.362 47.9925 215.521C44.6527 216.193 42.0313 214.89 41.3823 212.301C40.7778 209.879 42.1614 207.726 45.1567 206.434C45.5197 206.292 45.8523 206.203 46.1737 206.072C46.5479 205.972 46.8804 205.883 47.1491 205.721C48.2158 205.213 49.316 204.829 50.4162 204.445C51.7658 203.994 53.0627 203.513 54.2623 202.835C63.2548 197.485 69.2331 189.2 73.0218 176.734C72.6335 176.615 72.2148 176.549 71.8377 176.472C70.4539 176.13 69.1228 175.818 67.8333 175.495C57.8497 172.823 50.7946 168.61 45.6442 162.192C40.6327 155.961 38.9277 148.932 40.5543 141.367C42.1119 134.043 47.1151 128.604 53.8912 126.788C58.7135 125.496 63.9042 126.244 68.5012 128.933C74.2051 132.261 78.5549 137.022 81.3705 143.04C84.5113 149.773 85.8177 157.309 85.3901 166.023C85.3331 166.974 85.4363 167.526 85.6278 167.742C85.8194 167.958 86.3851 168.073 87.325 168.089C96.5763 168.194 104.069 167.39 110.845 165.574C112.633 165.095 114.398 164.533 116.058 163.91C130.013 158.789 140.162 148.941 147.911 132.963C138.984 132.905 130.297 131.579 122.049 129.066C113.654 126.503 105.476 122.59 97.6966 117.501C85.1559 109.277 78.3156 99.213 76.665 86.734C74.3622 68.9939 79.3999 53.2078 91.6708 39.8055C96.9092 34.08 102.765 30.3275 109.126 28.6232C109.75 28.4561 110.331 28.3002 110.966 28.1747C125.251 25.2827 138.253 29.2399 149.582 39.9275C159.468 49.2196 165.681 61.0999 168.069 75.1638C170.017 86.7609 169.345 98.8822 165.913 113.347C165.544 114.961 165.152 116.492 164.752 118.158C164.675 118.535 164.556 118.924 164.448 119.353L164.49 119.342L164.531 119.331C173.301 115.645 180.994 110.598 187.36 104.258C200.801 90.8991 209.083 73.7534 212.714 51.8838C213.408 47.8215 213.744 43.5878 214.124 39.5203C214.22 38.3808 214.327 37.2829 214.422 36.1433C214.57 34.3661 214.922 32.3557 216.831 30.9978C217.471 30.559 218.144 30.2449 218.809 30.0667C220.098 29.7214 221.343 29.8778 222.586 30.5251C225.324 31.9301 225.16 34.6472 225.057 36.5908C224.05 54.2822 220.445 69.5953 213.996 83.4424C207.335 97.6586 197.732 109.544 185.401 118.73ZM73.1653 152.991C71.9071 146.467 68.5772 141.522 62.9616 137.858C60.5867 136.311 58.1657 135.757 56.0871 136.314C53.4265 137.027 51.5055 139.502 50.8139 143.074C49.9213 147.724 51.1325 152.078 54.3503 155.938C57.2488 159.439 62.0723 163.805 73.8828 166.478C74.3127 166.585 74.4789 166.541 74.5205 166.53L74.5621 166.518C74.5621 166.518 74.6645 166.402 74.686 165.817C74.7331 161.17 74.6006 157.018 73.1987 153.116L73.1764 153.033L73.1653 152.991ZM158.134 83.4843C157.79 78.5417 157.359 75.2709 156.775 73.4225C153.784 62.5946 148.892 54.1476 141.345 46.7684C137.068 42.6122 131.831 39.6937 125.738 38.0737C120.987 36.8069 116.424 36.7374 112.225 37.8625C107.652 39.0878 103.417 41.7377 99.6318 45.7371C89.1795 56.7807 85.0316 70.2342 87.2348 85.7732C88.3921 93.7506 92.9055 100.784 100.731 106.708C114.541 117.176 129.925 122.544 146.413 122.716C147.217 122.723 147.926 122.711 148.511 122.733C150.172 122.778 151.248 122.801 151.83 122.645C152.37 122.501 152.481 122.248 153.041 120.182C153.267 119.364 153.491 118.368 153.908 117.098C157.432 105.639 158.86 94.3399 158.134 83.4843Z" fill="#1B2944"/>
</svg>
