<svg width="180" height="180" viewBox="0 0 180 180" fill="none" xmlns="http://www.w3.org/2000/svg">
<g clip-path="url(#clip0_2789_4111)">
<path d="M69.6073 124.781C89.8086 138.854 116.448 138.065 132.902 121.611C151.608 102.905 150.066 71.0332 129.457 50.4243C109.544 30.5109 79.1155 28.399 60.2083 45.1545L60.1518 45.098L36.6301 68.6197C28.8211 76.4288 23.9432 81.7571 20.9521 85.2351C17.9799 88.6912 17.5019 93.2785 20.1154 96.9676C22.8282 100.797 27.5095 106.543 35.4979 114.531C43.4862 122.519 49.2322 127.201 53.0612 129.913C56.7503 132.527 61.3376 132.049 64.7938 129.077C66.1183 127.938 67.7112 126.525 69.6073 124.781Z" stroke="#1B2944" stroke-width="8" stroke-linecap="round" stroke-linejoin="round"/>
<path d="M69.4327 65.6694C64.2365 70.8656 56.6827 71.7367 52.5609 67.6149C48.4391 63.4931 49.3101 55.9393 54.5064 50.743C59.7027 45.5467 67.2565 44.6757 71.3783 48.7975C75.5001 52.9193 74.629 60.4731 69.4327 65.6694Z" stroke="#1B2944" stroke-width="8" stroke-linecap="round" stroke-linejoin="round"/>
<path d="M78.6824 93.7362C74.5606 89.6144 75.4317 82.0606 80.6279 76.8643C85.8242 71.668 93.378 70.797 97.4998 74.9188C101.622 79.0406 100.751 86.5944 95.5543 91.7906C90.358 96.9869 82.8042 97.858 78.6824 93.7362Z" stroke="#1B2944" stroke-width="8" stroke-linecap="round" stroke-linejoin="round"/>
<path d="M52.3858 108.838L41.5658 119.658" stroke="#1B2944" stroke-width="8" stroke-linecap="round" stroke-linejoin="round"/>
<path d="M39.3253 95.7772L28.5053 106.597" stroke="#1B2944" stroke-width="8" stroke-linecap="round" stroke-linejoin="round"/>
</g>
<defs>
<clipPath id="clip0_2789_4111">
<rect width="126.654" height="127.737" fill="white" transform="matrix(-0.707107 -0.707107 -0.707107 0.707107 179.881 89.558)"/>
</clipPath>
</defs>
</svg>
