<svg width="127" height="127" viewBox="0 0 127 127" fill="none" xmlns="http://www.w3.org/2000/svg">
<path d="M27.8223 29.1639C30.712 26.1268 33.7049 22.9569 36.6536 19.8608C38.1427 18.2832 39.7203 16.7057 41.2094 15.1871C41.7254 14.6711 42.2414 14.1256 42.7574 13.6096C43.2734 13.0936 43.7895 12.5775 44.3202 12.0468C44.3644 12.0025 44.4234 11.9436 44.4677 11.8993C44.4382 12.0468 44.3792 12.1942 44.3202 12.3711C44.2907 12.4596 44.2465 12.5628 44.217 12.6512C42.0497 19.7428 39.8235 26.9524 37.6709 33.9113C36.521 37.6267 35.3709 41.342 34.2357 45.0426C32.953 49.1856 31.6408 53.4759 30.3434 57.781C29.9896 58.9605 30.1812 59.9778 30.8594 60.656C31.3312 61.1277 32.0389 61.4226 32.894 61.4816C33.3658 61.5111 33.8524 61.4963 34.2062 61.4668C38.2165 61.2309 42.2119 60.9803 46.2222 60.7444C54.8176 60.2284 63.7079 59.6829 72.436 59.1816C75.0014 59.0342 77.552 58.9605 80.2501 58.8573C81.1937 58.8278 82.1519 58.7835 83.125 58.7541C82.8891 58.99 82.7122 59.1668 82.5058 59.3438C79.1001 62.1892 75.6501 65.0495 72.1264 67.954C71.0943 68.8091 70.0623 69.6642 69.045 70.5046C66.4502 72.6571 63.7668 74.8981 61.0983 77.0654C56.6605 80.6776 51.515 84.909 46.8709 89.5827C45.308 91.1455 43.9811 93.0031 45.9125 94.9345C46.3696 95.3915 46.9888 95.8338 47.8292 96.3204C47.8882 96.3499 47.9324 96.3646 47.9619 96.3941C47.9766 96.4088 48.0061 96.4089 48.0208 96.4236C49.9522 97.4704 51.8689 98.5319 53.8003 99.5787C57.6483 101.687 61.4964 103.766 65.3444 105.874C70.5341 108.705 77.3898 112.435 84.334 116.195C86.516 117.374 87.5186 116.342 87.843 115.841C88.4769 114.853 88.2852 113.541 87.3121 112.568C87.1795 112.435 87.032 112.317 86.8698 112.184C86.2211 111.713 85.5135 111.329 84.8205 110.961L84.6878 110.887C81.0757 108.926 77.4783 106.98 73.8661 105.049C68.9713 102.395 63.8995 99.6524 58.9163 96.9691C57.0586 95.9666 55.1714 94.905 53.3433 93.873C52.6208 93.4749 51.8836 93.0621 51.1612 92.664C51.7657 91.7942 52.5766 91.1897 53.358 90.5852C53.8298 90.2313 54.2868 89.8628 54.7291 89.4499C56.749 87.5185 59.0194 85.5134 61.8797 83.1545C65.079 80.4859 68.3668 77.8174 71.5367 75.2373C73.1585 73.9103 74.8392 72.5539 76.4905 71.1975L77.7584 70.1655C80.5007 67.9245 83.3314 65.595 86.1032 63.2951C87.1795 62.3957 88.2262 61.4668 89.2583 60.5528C89.9217 59.9778 90.6 59.3585 91.2782 58.7983C92.5313 57.722 92.2955 56.3951 92.0153 55.5252C91.8679 55.0534 91.632 54.6406 91.3224 54.331C90.8359 53.8445 90.1724 53.5643 89.3173 53.5054C88.6391 53.4464 87.9609 53.4759 87.3859 53.4906C86 53.5496 84.6288 53.5938 83.2724 53.6528C79.7782 53.7855 76.1661 53.9182 72.6277 54.1246C64.6515 54.5816 56.5425 55.0534 48.7137 55.54C44.851 55.7759 40.9734 55.997 37.1106 56.2329C37.0074 56.2477 36.9043 56.2624 36.8158 56.2624C36.5062 56.3066 36.3735 56.3214 36.2555 56.2034C36.5356 55.2746 36.8305 54.331 37.0959 53.3874C37.7594 51.1906 38.4523 48.9349 39.1158 46.7086C40.6049 41.858 42.0792 37.0222 43.5536 32.1569C46.001 24.1364 48.5369 15.8506 51.0285 7.69744C51.3086 6.73912 51.5887 5.7218 51.8246 4.66027C52.0458 3.67246 51.8099 2.78787 51.117 2.09492C50.9695 1.94749 50.8074 1.81481 50.6304 1.69686C49.6279 1.01866 48.301 1.10714 47.2394 1.93277C47.0625 2.08021 46.9151 2.22761 46.7677 2.37504C46.7087 2.43401 46.6644 2.47826 46.6055 2.53723C45.8093 3.33338 44.9837 4.12953 44.1875 4.89619C42.4331 6.59169 40.6196 8.37564 38.8946 10.1596C34.162 15.0397 29.3704 20.0377 24.7409 24.8736C22.9717 26.7313 21.1877 28.5742 19.4185 30.4319L18.7403 31.1396C17.723 32.1863 16.691 33.2774 15.6737 34.3536C15.423 34.6338 15.1429 34.9139 14.8923 35.194C13.9339 36.2113 12.9314 37.2728 12.0173 38.3638C10.9705 39.617 10.9853 40.9882 12.0468 42.0497C12.1205 42.1234 12.1795 42.1824 12.2679 42.2414C13.4621 43.2587 14.6122 43.1112 15.9096 41.7843C17.9884 39.6465 20.0083 37.5087 22.2493 35.1498C24.0627 33.1299 25.9351 31.1396 27.8223 29.1639Z" fill="#1B2944"/>
</svg>
