<svg width="208" height="257" viewBox="0 0 208 257" fill="none" xmlns="http://www.w3.org/2000/svg">
<path d="M3.75365 200.518C1.8699 199.137 -0.289553 197.066 0.0320668 193.613C0.353687 190.115 2.97263 188.826 5.40771 187.859C8.34818 186.708 11.4723 185.926 14.4587 185.143C15.5614 184.867 16.7102 184.545 17.8128 184.269C18.7777 183.992 19.7424 183.762 20.7073 183.486C27.6909 181.599 34.9041 179.665 41.5202 176.305C45.4255 174.325 47.3094 171.656 47.4473 167.835C47.4932 166.27 47.7688 164.751 47.9985 163.232C48.0904 162.771 48.1823 162.265 48.2282 161.805C48.366 160.884 48.5038 160.009 48.6417 159.089C50.066 149.836 51.5362 140.261 54.6145 131.147C55.6253 128.155 56.6821 125.853 57.9226 123.874C59.255 121.756 61.4145 120.513 63.7577 120.513C65.7333 120.513 67.6629 121.388 69.1791 122.999C70.4656 124.38 71.1548 126.037 71.7521 127.74C76.1628 139.847 81.1708 151.954 86.041 163.646L86.8679 165.579C87.6489 167.467 88.6137 169.308 89.5786 171.103C89.9002 171.702 90.2218 172.3 90.4975 172.898C91.5083 174.832 92.8407 175.706 94.9082 175.706C95.2298 175.706 95.5973 175.66 95.9649 175.66L98.7216 175.338C107.221 174.279 115.951 173.221 124.543 171.656C128.999 170.827 133.594 170.09 138.004 169.4C140.026 169.078 142.002 168.756 144.023 168.433L144.942 168.295L144.988 168.617C145.034 168.617 145.034 168.617 145.08 168.617C145.264 168.617 145.448 168.617 145.631 168.617C149.904 168.848 152.707 170.781 153.488 174.095C154.407 177.962 151.329 180.172 148.893 181.507C145.861 183.164 142.875 185.005 139.934 186.8C135.891 189.24 131.71 191.818 127.391 193.981C123.991 195.685 119.581 197.894 115.216 200.334C114.067 200.978 112.735 201.715 112.643 202.083C112.551 202.451 113.286 203.648 114.021 204.753C115.767 207.515 117.605 210.323 119.351 213.039C120.408 214.65 121.418 216.261 122.475 217.872C124.175 220.496 126.059 223.58 127.116 227.079C127.989 229.841 128.724 233.063 126.197 235.825C124.818 237.344 123.026 238.081 120.821 238.081C119.581 238.081 118.294 237.85 117.191 237.666C116.732 237.574 116.319 237.39 115.997 237.252C115.767 237.16 115.583 237.068 115.4 237.022C111.724 235.825 108.232 234.306 104.74 232.695L103.454 232.096C96.7001 229.012 89.7165 225.836 82.2734 224.225C81.2167 223.995 80.2978 223.903 79.5167 223.903C76.9897 223.903 75.1979 224.961 73.5439 227.539C69.8223 233.201 65.7332 238.725 61.7359 244.065C60.5873 245.63 59.3929 247.195 58.2443 248.76C56.866 250.647 54.9362 253.041 52.4552 254.975C50.7093 256.31 48.9635 257 47.2175 257C46.2068 257 45.196 256.77 44.2311 256.31C41.4285 255.021 39.9583 252.627 39.8664 249.22C39.8204 248.162 39.8663 247.011 40.0041 245.86C40.2338 243.651 40.5095 241.441 40.7393 239.277C40.969 237.068 41.2447 234.812 41.4744 232.603C41.5663 231.866 41.6123 231.084 41.7042 230.347C42.3014 224.961 42.8987 219.391 43.0365 213.867C43.0825 212.487 42.8067 212.118 41.2905 211.796C33.1582 210.047 25.2098 208.205 17.6289 206.272C12.8506 205.121 7.98058 203.602 3.75365 200.518ZM21.9936 196.559C29.5286 198.493 37.2934 200.472 45.058 201.853C45.3797 201.899 45.7014 201.945 46.0689 201.991C46.4824 202.037 46.9418 202.083 47.3553 202.175C52.3633 203.142 54.3849 205.536 54.5227 210.553C54.6146 214.788 54.2471 219.023 53.8796 223.12C53.6958 224.869 53.5579 226.711 53.4201 228.506C53.2363 230.946 52.9146 233.431 52.593 235.825C52.547 236.331 52.4552 236.838 52.4092 237.344C52.5011 237.206 52.5931 237.022 52.7309 236.838C52.8688 236.654 52.9606 236.469 53.0984 236.239C54.3389 234.49 55.6255 232.741 56.866 231.038C59.5767 227.263 62.4253 223.396 65.0901 219.529C68.0765 215.202 72.0737 213.085 77.2655 213.085C78.0925 213.085 78.9655 213.131 79.8384 213.269C86.6842 214.098 93.6219 216.215 102.351 220.128C105.246 221.417 108.186 222.706 111.265 224.041C112.138 224.409 113.056 224.823 113.975 225.238C113.608 224.225 113.056 223.442 112.505 222.66C112.275 222.291 112 221.923 111.77 221.555C110.3 219.161 108.738 216.768 107.221 214.42C105.613 211.934 103.959 209.402 102.397 206.87C99.1351 201.623 99.8703 197.664 104.786 193.705C107.221 191.726 110.024 190.299 112.689 188.918C113.378 188.55 114.113 188.181 114.802 187.813C115.951 187.215 117.146 186.616 118.294 186.064C120.27 185.097 122.337 184.13 124.175 182.934C124.037 182.749 123.899 182.749 123.808 182.749C123.532 182.749 123.164 182.841 122.797 182.98C122.429 183.072 122.108 183.21 121.74 183.256C119.305 183.532 116.87 183.854 114.481 184.13C109.105 184.775 103.546 185.373 98.0784 186.202C96.9757 186.386 95.873 186.432 94.8622 186.432C88.0624 186.432 83.0084 182.934 79.4247 175.798C76.2545 169.446 73.5898 162.771 70.9709 156.281C69.7304 153.243 68.49 150.112 67.2036 147.074C66.3306 145.049 65.5954 143.023 64.7684 140.906C64.5846 140.445 64.4009 139.939 64.2172 139.433C63.7118 140.538 63.482 141.688 63.2983 142.885C63.2064 143.438 63.1144 143.99 62.9766 144.588C61.1847 152.138 60.128 160.009 59.0712 167.605C58.8875 168.802 58.7496 169.998 58.5658 171.241C57.7388 177.087 54.7525 181.507 49.4688 184.683C43.6338 188.181 37.1096 190.115 30.8611 192.002C30.172 192.186 29.4828 192.416 28.7936 192.6C26.3126 193.337 23.7397 194.027 21.2587 194.626C20.2479 194.902 19.1911 195.132 18.1803 195.408L17.9966 195.454C17.9506 195.454 17.9045 195.5 17.8586 195.5C19.191 195.823 20.5693 196.191 21.9936 196.559Z" fill="#1B2944"/>
<path d="M178.39 98.6939C178.62 99.9828 178.895 101.272 179.171 102.515C179.86 105.737 180.55 109.005 180.595 112.412C180.641 114.759 179.998 116.693 178.666 118.028C177.425 119.27 175.725 119.961 173.704 119.961H173.658C171.269 119.961 169.155 118.902 167.455 116.831C166.536 115.726 165.663 114.621 164.836 113.516C164.101 112.596 163.366 111.629 162.631 110.708C157.439 104.31 152.661 98.5558 147.239 93.216C144.483 90.5001 142.875 89.4874 141.267 89.4874C139.659 89.4874 137.821 90.5461 135.386 92.2493C131.802 94.7811 128.264 97.451 124.818 100.075C119.994 103.757 114.986 107.532 109.794 110.893L109.703 110.985C107.543 112.366 105.338 113.839 102.765 114.713C101.708 115.082 100.651 115.266 99.7325 115.266C97.665 115.266 95.9191 114.391 94.6786 112.78C92.611 110.11 93.7136 107.532 95.046 105.415C95.9649 103.942 96.9298 102.515 97.8487 101.134C98.6757 99.8908 99.5027 98.6018 100.33 97.3589C104.465 90.7763 109.059 82.8127 111.724 73.6982C112.092 72.4554 112.413 71.2585 112.275 70.8902C112.092 70.568 111.127 70.1537 109.794 69.6013L109.657 69.5553C107.497 68.6807 105.292 67.8521 103.132 67.0235C98.6757 65.3203 94.0354 63.571 89.6706 61.4075C86.6842 59.9345 83.6059 58.1852 81.2168 55.3312C79.7925 53.674 79.1951 51.8327 79.4708 50.0835C79.7005 48.3342 80.7573 46.8612 82.5032 45.7104C83.7896 44.8358 85.2599 44.4675 86.6842 44.1913C91.2327 43.2706 95.8273 43.2706 100.284 43.2706C101.57 43.2706 102.857 43.2707 104.143 43.2246C104.878 43.2246 105.613 43.2246 106.395 43.2246C108.049 43.2246 109.703 43.2706 111.311 43.2706C112.919 43.3167 114.573 43.3167 116.181 43.3167C120.132 43.3167 123.164 43.1786 125.967 42.8103C129.872 42.304 131.802 40.6468 133.089 36.5959C134.191 33.0514 135.156 29.4149 136.121 25.9164C137.545 20.5766 139.015 15.0527 140.991 9.71292C141.818 7.41129 142.783 5.01756 144.391 2.9461C145.815 1.10479 147.975 0 150.226 0C151.696 0 153.029 0.414327 154.177 1.24291C156.474 2.90009 156.98 5.52396 157.301 7.41129C158.036 11.4622 158.634 15.6511 159.231 19.656L159.369 20.5766C160.104 25.6862 160.839 30.8418 161.528 35.8594C161.804 37.7467 162.034 39.6341 162.31 41.5214C162.723 41.5214 163.136 41.3833 163.596 41.2453H163.642C172.463 38.2071 181.836 36.642 191.393 36.642C193.644 36.642 195.941 36.734 198.284 36.9182C200.214 37.0563 202.419 37.2864 204.395 38.3912C206.141 39.3579 207.335 40.6928 207.795 42.304C208.254 43.9151 207.933 45.7104 206.922 47.4136C206.049 48.9327 204.808 50.3136 203.108 51.7406C196.309 57.4947 189.555 63.8472 182.479 71.2125C180.228 73.5141 178.252 75.9998 176.598 78.6237C175.312 80.6491 174.99 82.3523 175.496 84.4238C176.644 89.0731 177.563 94.0446 178.39 98.6939ZM184.593 53.6741C186.385 52.0169 188.222 50.3136 190.198 48.4723L191.576 47.1834C190.657 47.1374 189.692 47.0914 188.774 47.0914C184.822 47.0914 180.963 47.5057 176.69 48.4723C171.085 49.6692 165.617 51.5566 161.069 53.2137C159.966 53.628 158.864 53.8121 157.807 53.8121C155.739 53.8121 153.902 53.0296 152.569 51.6486C151.145 50.1756 150.456 48.058 150.548 45.7564C150.685 42.304 150.226 38.8515 149.766 35.5372C149.491 33.4197 149.169 31.2562 149.031 29.0926C148.939 27.6656 148.664 26.2386 148.342 24.7195C148.342 24.6735 148.342 24.6274 148.296 24.5814C148.296 24.6735 148.25 24.7655 148.204 24.8576C147.791 26.2846 147.331 27.7116 146.918 29.1387C145.815 32.7752 144.712 36.5039 143.748 40.2325C142.094 46.8612 137.729 50.9121 130.332 52.6153C127.208 53.3518 123.808 53.6741 119.902 53.6741H119.673C116.87 53.6741 113.792 53.6741 110.07 53.6741C107.865 53.6741 105.613 53.6741 103.408 53.6741C101.846 53.6741 100.238 53.6741 98.6759 53.6741C98.8137 53.7201 98.9975 53.7661 99.1353 53.8121C102.214 55.055 105.384 56.2519 108.416 57.4487C110.805 58.3694 113.332 59.336 115.767 60.3027C122.797 63.0647 124.818 66.8393 123.302 74.2506C122.337 78.8539 120.408 83.1349 118.524 87.3239L118.34 87.7842C117.927 88.6588 117.513 89.4874 117.054 90.316C116.548 91.2827 116.043 92.2033 115.675 93.124C116.686 92.3874 117.743 91.697 118.754 91.0065C122.291 88.5207 125.967 85.9889 129.459 83.319C133.548 80.1888 137.178 78.7157 140.853 78.7157C144.667 78.7157 148.664 80.3269 153.442 83.8714C156.612 86.2191 159.139 89.2112 161.574 92.1113C162.953 93.7224 164.377 95.4256 165.847 96.9447C165.985 97.1288 166.123 97.2669 166.261 97.451C166.169 96.9447 166.077 96.3923 165.985 95.8859C165.526 93.4002 165.066 90.7763 164.423 88.2905C162.769 81.7999 164.009 76.0459 168.282 70.7061C173.704 63.9854 179.86 58.0471 184.593 53.6741Z" fill="#1B2944"/>
</svg>
