<svg width="312" height="312" viewBox="0 0 312 312" fill="none" xmlns="http://www.w3.org/2000/svg">
<g clip-path="url(#clip0_2776_3921)">
<path d="M124.965 113.6L145.601 152.48L106.721 173.116M156.318 188.32L186.077 197.441M61.7597 213.592L200.632 256.161C205.893 257.773 211.58 257.23 216.441 254.65C221.302 252.07 224.939 247.664 226.552 242.403L263.039 123.37C264.652 118.108 264.109 112.421 261.529 107.56C258.949 102.699 254.543 99.0623 249.282 97.4495L110.41 54.8808C105.148 53.268 99.4613 53.8113 94.6003 56.3914C89.7394 58.9714 86.1024 63.3768 84.4896 68.6384L48.0021 187.672C46.3893 192.933 46.9326 198.62 49.5127 203.481C52.0927 208.342 56.4981 211.979 61.7597 213.592Z" stroke="#1B2944" stroke-width="12" stroke-linecap="round" stroke-linejoin="round"/>
</g>
<defs>
<clipPath id="clip0_2776_3921">
<rect width="249" height="249" fill="white" transform="translate(72.9751) rotate(17.042)"/>
</clipPath>
</defs>
</svg>
