<svg width="146" height="30" viewBox="0 0 146 30" fill="none" xmlns="http://www.w3.org/2000/svg">
<path d="M143.501 9.30426C114.34 7.45213 85.4304 3.99865 56.2164 3.23009C39.4238 2.78831 -10.7948 1.4951 5.82746 3.98935C33.1491 8.08911 61.3866 7.95738 88.8954 10.7144C99.5538 11.7826 110.127 13.2144 120.731 14.7277C124.812 15.31 127.999 16.2941 121.469 15.9208C92.3239 14.2548 63.3301 10.5524 34.1844 8.76194C31.0742 8.57087 21.8592 8.47775 24.8551 9.35849C35.8365 12.5869 47.6175 13.8587 58.8518 15.6496C72.38 17.8062 86.1271 19.1531 99.5424 21.995C104.361 23.0158 110.816 23.3344 115.302 25.4117C123.242 29.0878 97.9164 26.8269 89.2117 26.6591C74.7248 26.3798 60.2546 25.5193 45.7802 24.9236" stroke="#1B2944" stroke-width="5" stroke-linecap="round"/>
</svg>
