<svg width="655" height="131" viewBox="0 0 655 131" fill="none" xmlns="http://www.w3.org/2000/svg">
<path d="M514.657 24.2784C516.229 21.6394 517.853 18.8888 519.457 16.198C520.265 14.8292 521.136 13.446 521.954 12.1193C522.239 11.6669 522.519 11.1934 522.804 10.7409C523.089 10.2885 523.374 9.836 523.667 9.37063C523.692 9.33185 523.724 9.28014 523.749 9.24136C523.751 9.35149 523.733 9.46642 523.72 9.60241C523.713 9.6704 523.698 9.75128 523.692 9.81927C523.294 15.2381 522.873 20.7507 522.464 26.0723C522.246 28.9136 522.027 31.7549 521.816 34.5833C521.572 37.7516 521.331 41.0301 521.102 44.3167C521.041 45.2169 521.343 45.9126 521.938 46.2872C522.351 46.5477 522.905 46.6435 523.525 46.5469C523.867 46.4914 524.212 46.4019 524.46 46.3234C527.288 45.5041 530.102 44.6766 532.929 43.8573C538.987 42.0937 545.25 40.2612 551.405 38.4867C553.214 37.965 555.025 37.4984 556.936 36.9868C557.606 36.8126 558.283 36.6255 558.974 36.4465C558.843 36.6534 558.746 36.8085 558.627 36.9684C556.655 39.5542 554.654 42.1578 552.608 44.8049C552.009 45.5834 551.411 46.3619 550.82 47.1274C549.315 49.0865 547.762 51.1232 546.207 53.1049C543.622 56.406 540.632 60.2644 538.072 64.3575C537.209 65.7277 536.562 67.2704 538.256 68.337C538.657 68.5894 539.171 68.8049 539.85 69.0162C539.897 69.0277 539.931 69.031 539.957 69.0473C539.97 69.0554 539.991 69.0507 540.004 69.0588C541.554 69.4933 543.096 69.9408 544.646 70.3753C547.737 71.2573 550.824 72.1181 553.916 73.0001C558.083 74.1805 563.587 75.7332 569.159 77.2926C570.909 77.7813 571.458 76.8812 571.609 76.4703C571.901 75.6617 571.551 74.7552 570.698 74.2178C570.582 74.1446 570.457 74.0842 570.32 74.0157C569.78 73.7839 569.212 73.6248 568.657 73.4739L568.55 73.4428C565.651 72.6279 562.765 71.8211 559.871 71.0273C555.942 69.9254 551.874 68.7891 547.878 67.6805C546.387 67.2656 544.867 66.8134 543.393 66.3726C542.812 66.2054 542.219 66.0301 541.638 65.8629C541.929 65.1433 542.41 64.5798 542.87 64.021C543.15 63.6917 543.416 63.3541 543.666 62.9874C544.795 61.2796 546.092 59.4785 547.753 57.3288C549.606 54.9029 551.522 52.4626 553.368 50.1046C554.312 48.8934 555.293 47.6514 556.252 46.4143L556.991 45.4711C558.587 43.4248 560.231 41.301 561.838 39.2079C562.461 38.3906 563.059 37.5571 563.648 36.7364C564.028 36.2179 564.413 35.6654 564.806 35.1551C565.527 34.1827 565.143 33.2728 564.802 32.6968C564.62 32.3836 564.384 32.1269 564.113 31.9559C563.686 31.6873 563.167 31.5948 562.546 31.6914C562.052 31.7593 561.572 31.8904 561.164 31.9943C560.183 32.2613 559.211 32.5154 558.251 32.7777C555.776 33.4395 553.217 34.1205 550.722 34.8422C545.097 36.4632 539.379 38.1162 533.865 39.7343C531.143 40.5297 528.408 41.317 525.686 42.1124C525.615 42.1397 525.544 42.1669 525.48 42.1813C525.266 42.2631 525.174 42.2952 525.071 42.2301C525.12 41.521 525.178 40.7989 525.214 40.0816C525.332 38.4043 525.461 36.6801 525.573 34.9817C525.85 31.2742 526.119 27.5797 526.383 23.8641C526.83 17.7361 527.297 11.4042 527.755 5.17434C527.799 4.44414 527.834 3.6718 527.83 2.87503C527.828 2.13334 527.516 1.53955 526.909 1.15689C526.779 1.07547 526.642 1.00698 526.496 0.951419C525.67 0.629529 524.736 0.908078 524.112 1.67027C524.009 1.80433 523.928 1.93357 523.846 2.06284C523.814 2.11455 523.789 2.15334 523.757 2.20505C523.317 2.90311 522.856 3.60596 522.412 4.28295C521.434 5.77913 520.427 7.34808 519.484 8.90268C516.895 13.1576 514.282 17.5064 511.759 21.7129C510.796 23.3274 509.821 24.9337 508.858 26.5482L508.488 27.1639C507.931 28.0769 507.371 29.0239 506.819 29.958C506.685 30.1989 506.53 30.4445 506.397 30.6853C505.877 31.5677 505.333 32.4889 504.857 33.4168C504.312 34.4821 504.545 35.4594 505.476 36.0456C505.541 36.0863 505.592 36.1189 505.665 36.1467C506.684 36.6797 507.481 36.3878 508.193 35.2291C509.332 33.3643 510.428 31.509 511.646 29.4598C512.614 27.7223 513.629 25.9963 514.657 24.2784Z" fill="white"/>
<path d="M140.003 128.288C140.003 127.136 140.035 126.08 140.099 125.12C140.227 124.096 140.451 123.2 140.771 122.432C143.395 122.304 145.091 121.696 145.859 120.608C146.691 119.456 147.107 117.28 147.107 114.08V100.352C147.107 98.24 146.947 96.608 146.627 95.456C146.371 94.24 145.731 93.376 144.707 92.864C143.747 92.288 142.211 91.936 140.099 91.808C140.099 90.912 140.163 90.016 140.291 89.12C140.483 88.16 140.803 87.232 141.251 86.336C143.171 86.336 145.187 86.208 147.299 85.952C149.475 85.632 151.491 85.248 153.347 84.8C155.267 84.288 156.771 83.744 157.859 83.168C158.627 83.424 159.267 83.968 159.779 84.8C160.291 85.568 160.547 86.72 160.547 88.256C160.547 89.344 160.419 90.56 160.163 91.904C159.971 93.248 159.555 95.328 158.915 98.144H158.147C159.299 95.2 160.163 93.152 160.739 92C161.379 90.784 161.955 89.92 162.467 89.408C163.811 87.872 165.635 86.464 167.939 85.184C170.243 83.904 172.867 83.264 175.811 83.264C178.819 83.264 181.475 83.904 183.779 85.184C186.147 86.464 187.907 88.384 189.059 90.944C189.763 92.224 190.115 93.6 190.115 95.072H189.731C190.691 92.512 191.779 90.624 192.995 89.408C194.275 88 195.971 86.72 198.083 85.568C200.259 84.416 202.755 83.84 205.571 83.84C208.707 83.84 211.395 84.384 213.635 85.472C215.875 86.496 217.603 88.192 218.819 90.56C220.099 92.928 220.739 96.096 220.739 100.064V111.68C220.739 114.688 220.867 116.96 221.123 118.496C221.443 119.968 221.955 120.96 222.659 121.472C223.363 121.984 224.387 122.304 225.731 122.432C225.987 123.264 226.147 124.16 226.211 125.12C226.339 126.08 226.403 127.136 226.403 128.288C224.867 128.16 223.043 128.064 220.931 128C218.819 128 216.643 128 214.403 128C212.931 128 211.363 128 209.699 128C208.035 128.064 206.435 128.096 204.899 128.096C203.363 128.16 202.019 128.224 200.867 128.288C200.867 127.008 200.899 125.92 200.963 125.024C201.091 124.128 201.283 123.264 201.539 122.432C202.883 122.304 203.971 121.984 204.803 121.472C205.635 120.896 206.211 119.872 206.531 118.4C206.915 116.928 207.107 114.848 207.107 112.16V102.944C207.107 98.784 206.467 95.968 205.187 94.496C203.971 93.024 202.339 92.288 200.291 92.288C198.563 92.288 196.963 92.864 195.491 94.016C194.019 95.168 192.867 96.896 192.035 99.2C191.203 101.44 190.787 104.288 190.787 107.744V113.792C190.787 117.056 191.171 119.296 191.939 120.512C192.771 121.664 194.275 122.304 196.451 122.432C196.707 123.136 196.899 124 197.027 125.024C197.155 126.048 197.219 127.136 197.219 128.288C195.683 128.16 193.699 128.064 191.267 128C188.835 128 186.435 128 184.067 128C181.763 128 179.395 128 176.963 128C174.595 128.064 172.547 128.16 170.819 128.288C170.819 127.136 170.851 126.048 170.915 125.024C171.043 124 171.235 123.136 171.491 122.432C173.027 122.304 174.211 121.984 175.043 121.472C175.875 120.96 176.451 119.936 176.771 118.4C177.091 116.864 177.251 114.624 177.251 111.68V102.176C177.251 98.336 176.611 95.712 175.331 94.304C174.115 92.832 172.355 92.096 170.051 92.096C168.451 92.096 166.915 92.704 165.443 93.92C164.035 95.136 162.883 96.896 161.987 99.2C161.155 101.504 160.739 104.288 160.739 107.552V113.792C160.739 117.12 161.123 119.36 161.891 120.512C162.659 121.664 164.163 122.304 166.403 122.432C166.659 123.2 166.819 124.096 166.883 125.12C167.011 126.08 167.075 127.136 167.075 128.288C166.051 128.16 164.707 128.064 163.043 128C161.443 128 159.779 128 158.051 128C156.323 128 154.755 128 153.347 128C152.003 128 150.467 128 148.739 128C147.011 128 145.347 128 143.747 128C142.211 128.064 140.963 128.16 140.003 128.288ZM256.816 128.864C255.728 128.416 254.96 127.776 254.512 126.944C254.064 126.048 253.84 124.832 253.84 123.296C253.84 122.528 253.904 121.632 254.032 120.608C254.16 119.52 254.384 118.496 254.704 117.536L254.992 117.248C254.544 118.912 253.904 120.448 253.072 121.856C252.24 123.2 251.248 124.32 250.096 125.216C248.816 126.368 247.248 127.232 245.392 127.808C243.6 128.384 241.456 128.672 238.96 128.672C234.672 128.672 231.344 127.744 228.976 125.888C226.608 124.032 225.424 121.376 225.424 117.92C225.424 115.488 225.968 113.408 227.056 111.68C228.208 109.888 229.744 108.384 231.664 107.168C233.584 105.952 235.728 104.96 238.096 104.192C240.464 103.424 242.864 102.816 245.296 102.368C247.792 101.92 250.128 101.536 252.304 101.216C252.304 99.36 252.24 97.824 252.112 96.608C252.048 95.328 251.856 94.272 251.536 93.44C251.28 92.544 250.832 91.776 250.192 91.136C249.488 90.24 248.656 89.632 247.696 89.312C246.8 88.928 245.84 88.736 244.816 88.736C243.024 88.736 241.584 89.28 240.496 90.368C239.472 91.392 238.704 92.736 238.192 94.4C237.68 96.064 237.36 97.76 237.232 99.488C235.696 99.488 234.256 99.424 232.912 99.296C231.568 99.168 230.384 98.912 229.36 98.528C229.488 96.8 229.52 94.944 229.456 92.96C229.392 90.976 229.168 88.992 228.784 87.008C231.472 85.792 234.544 84.832 238 84.128C241.52 83.424 244.816 83.072 247.888 83.072C251.536 83.072 254.48 83.52 256.72 84.416C258.96 85.248 260.656 86.24 261.808 87.392C263.152 88.8 264.176 90.72 264.88 93.152C265.648 95.52 266.032 98.944 266.032 103.424V111.776C266.032 113.824 266.16 115.424 266.416 116.576C266.672 117.664 267.184 118.432 267.952 118.88C268.784 119.328 270.032 119.584 271.696 119.648C271.824 120.672 271.824 121.728 271.696 122.816C271.568 123.84 271.28 124.8 270.832 125.696C268.528 125.76 266.128 126.08 263.632 126.656C261.2 127.168 258.928 127.904 256.816 128.864ZM243.76 120.704C245.04 120.704 246.352 120.288 247.696 119.456C249.04 118.56 250.128 117.248 250.96 115.52C251.856 113.792 252.304 111.584 252.304 108.896V106.304C250.448 106.624 248.688 107.008 247.024 107.456C245.424 107.904 244.016 108.48 242.8 109.184C241.648 109.824 240.752 110.656 240.112 111.68C239.472 112.64 239.152 113.856 239.152 115.328C239.152 117.248 239.6 118.624 240.496 119.456C241.456 120.288 242.544 120.704 243.76 120.704ZM296.166 83.168C297.638 83.168 298.982 83.296 300.198 83.552C301.478 83.744 302.822 84.032 304.23 84.416V93.344C303.078 91.936 301.862 90.848 300.582 90.08C299.366 89.248 297.83 88.832 295.974 88.832C294.758 88.832 293.446 89.088 292.038 89.6C290.694 90.048 289.414 90.912 288.198 92.192C286.982 93.408 285.99 95.2 285.222 97.568C284.454 99.872 284.07 102.848 284.07 106.496C284.07 109.504 284.454 112.096 285.222 114.272C286.054 116.448 287.142 118.144 288.486 119.36C289.83 120.512 291.366 121.088 293.094 121.088C294.758 121.088 296.358 120.576 297.894 119.552C299.43 118.464 300.678 116.736 301.638 114.368C302.662 111.936 303.174 108.736 303.174 104.768L306.918 114.56C305.894 117.056 304.934 119.008 304.038 120.416C303.142 121.76 302.278 122.784 301.446 123.488C300.806 124.256 299.846 125.056 298.566 125.888C297.35 126.72 295.91 127.424 294.246 128C292.582 128.576 290.758 128.864 288.774 128.864C285.126 128.864 281.862 128.16 278.982 126.752C276.166 125.344 273.958 123.136 272.358 120.128C270.758 117.12 269.958 113.248 269.958 108.512C269.958 103.648 271.046 99.296 273.222 95.456C275.398 91.616 278.438 88.608 282.342 86.432C286.31 84.256 290.918 83.168 296.166 83.168ZM316.806 111.968C316.806 113.952 316.934 115.52 317.19 116.672C317.446 117.76 317.99 118.528 318.822 118.976C319.654 119.424 320.87 119.648 322.47 119.648C322.598 120.672 322.598 121.728 322.47 122.816C322.342 123.84 322.054 124.8 321.606 125.696C319.302 125.76 316.87 126.08 314.31 126.656C311.814 127.168 309.51 127.904 307.398 128.864C306.374 128.416 305.606 127.808 305.094 127.04C304.582 126.272 304.326 125.056 304.326 123.392C304.326 122.112 304.454 120.832 304.71 119.552C305.03 118.272 305.446 116.768 305.958 115.04L316.806 111.968ZM316.806 73.184V115.52H303.174V73.184H316.806ZM314.022 59.168C314.854 59.488 315.526 60.064 316.038 60.896C316.55 61.664 316.806 62.784 316.806 64.256V76.448H303.174V74.624C303.174 73.088 302.982 71.84 302.598 70.88C302.278 69.92 301.606 69.216 300.582 68.768C299.558 68.256 298.022 67.936 295.974 67.808C295.974 66.848 296.038 65.92 296.166 65.024C296.358 64.064 296.646 63.168 297.03 62.336C299.206 62.336 301.414 62.176 303.654 61.856C305.894 61.536 307.942 61.152 309.798 60.704C311.718 60.192 313.126 59.68 314.022 59.168ZM331.645 128.288C331.645 127.136 331.677 126.08 331.741 125.12C331.869 124.096 332.061 123.2 332.317 122.432C334.877 122.368 336.573 121.76 337.405 120.608C338.301 119.456 338.749 117.28 338.749 114.08V74.624C338.749 73.088 338.557 71.84 338.173 70.88C337.853 69.92 337.181 69.216 336.157 68.768C335.133 68.256 333.597 67.936 331.549 67.808C331.549 66.848 331.613 65.92 331.741 65.024C331.933 64.064 332.221 63.168 332.605 62.336C334.781 62.336 336.989 62.176 339.229 61.856C341.533 61.536 343.613 61.152 345.469 60.704C347.325 60.192 348.701 59.68 349.597 59.168C350.429 59.488 351.101 60.064 351.613 60.896C352.125 61.664 352.381 62.784 352.381 64.256V114.08C352.381 117.216 352.733 119.36 353.437 120.512C354.141 121.664 355.453 122.304 357.373 122.432C357.629 123.2 357.789 124.128 357.853 125.216C357.917 126.24 357.949 127.264 357.949 128.288C356.541 128.16 354.653 128.064 352.285 128C349.917 128 347.517 128 345.085 128C343.421 128 341.725 128 339.997 128C338.269 128.064 336.669 128.096 335.197 128.096C333.725 128.16 332.541 128.224 331.645 128.288ZM369.181 128.864C368.221 127.328 366.973 125.568 365.437 123.584C363.965 121.536 362.365 119.424 360.637 117.248C358.909 115.008 357.149 112.832 355.357 110.72C353.565 108.608 351.869 106.72 350.269 105.056L359.101 97.088C360.893 95.424 362.109 94.144 362.749 93.248C363.453 92.352 363.805 91.648 363.805 91.136C363.805 90.624 363.613 90.24 363.229 89.984C362.845 89.728 362.173 89.6 361.213 89.6C360.893 88.64 360.637 87.68 360.445 86.72C360.317 85.76 360.253 84.8 360.253 83.84C361.341 83.84 362.621 83.872 364.093 83.936C365.565 83.936 367.133 83.968 368.797 84.032C370.461 84.032 372.029 84.032 373.501 84.032C374.973 84.032 376.477 84.032 378.013 84.032C379.613 83.968 381.117 83.904 382.525 83.84C382.525 84.864 382.461 85.856 382.333 86.816C382.205 87.776 381.981 88.704 381.661 89.6C380.125 89.664 378.717 89.888 377.437 90.272C376.221 90.656 374.973 91.264 373.693 92.096C372.477 92.864 371.069 93.984 369.469 95.456L361.213 102.944L360.253 98.336C363.261 100.96 366.109 103.776 368.797 106.784C371.549 109.792 374.397 113.248 377.341 117.152C378.301 118.432 379.165 119.424 379.933 120.128C380.765 120.832 381.597 121.344 382.429 121.664C383.261 121.92 384.285 122.112 385.501 122.24C385.501 123.264 385.437 124.288 385.309 125.312C385.181 126.272 384.925 127.168 384.541 128C382.941 128 381.213 128.032 379.357 128.096C377.565 128.16 375.773 128.224 373.981 128.288C372.189 128.416 370.589 128.608 369.181 128.864ZM382.76 128.288C382.76 127.136 382.792 126.08 382.856 125.12C382.984 124.096 383.176 123.2 383.432 122.432C385.992 122.368 387.688 121.76 388.52 120.608C389.416 119.456 389.864 117.28 389.864 114.08V98.624C389.864 97.088 389.704 95.84 389.384 94.88C389.064 93.92 388.392 93.216 387.368 92.768C386.344 92.256 384.808 91.936 382.76 91.808C382.76 90.848 382.824 89.92 382.952 89.024C383.08 88.064 383.368 87.168 383.816 86.336C385.928 86.336 388.104 86.176 390.344 85.856C392.648 85.536 394.728 85.152 396.584 84.704C398.504 84.192 399.912 83.68 400.808 83.168C401.64 83.488 402.312 84.064 402.824 84.896C403.336 85.664 403.592 86.784 403.592 88.256V114.08C403.592 117.28 404.008 119.456 404.84 120.608C405.672 121.76 407.24 122.368 409.544 122.432C409.8 123.2 409.96 124.128 410.024 125.216C410.152 126.24 410.216 127.264 410.216 128.288C409.256 128.224 408.04 128.16 406.568 128.096C405.096 128.096 403.496 128.064 401.768 128C400.04 128 398.312 128 396.584 128C394.856 128 393.096 128 391.304 128C389.512 128.064 387.88 128.096 386.408 128.096C384.936 128.16 383.72 128.224 382.76 128.288ZM395.528 75.584C393.224 75.584 391.336 74.976 389.864 73.76C388.456 72.48 387.752 70.848 387.752 68.864C387.752 66.56 388.552 64.768 390.152 63.488C391.752 62.208 393.672 61.568 395.912 61.568C398.536 61.568 400.552 62.208 401.96 63.488C403.368 64.768 404.072 66.528 404.072 68.768C404.072 70.688 403.304 72.32 401.768 73.664C400.232 74.944 398.152 75.584 395.528 75.584ZM416.027 107.936V99.584C416.027 97.728 415.867 96.288 415.547 95.264C415.291 94.176 414.651 93.376 413.627 92.864C412.667 92.288 411.131 91.936 409.019 91.808C409.019 90.848 409.083 89.92 409.211 89.024C409.403 88.064 409.723 87.168 410.171 86.336C413.563 86.336 416.827 86.016 419.963 85.376C423.163 84.672 425.499 83.936 426.971 83.168C427.867 83.488 428.539 84.064 428.987 84.896C429.499 85.664 429.755 86.816 429.755 88.352L416.027 107.936ZM460.187 114.08C460.187 117.28 460.539 119.488 461.243 120.704C462.011 121.856 463.259 122.432 464.987 122.432C465.307 123.2 465.499 124.064 465.563 125.024C465.691 125.92 465.755 127.008 465.755 128.288C464.347 128.224 462.523 128.16 460.283 128.096C458.107 128.032 455.963 128 453.851 128C452.443 128 450.843 128 449.051 128C447.323 128.064 445.659 128.096 444.059 128.096C442.459 128.16 441.179 128.224 440.219 128.288C440.219 127.136 440.251 126.08 440.315 125.12C440.379 124.16 440.571 123.264 440.891 122.432C442.683 122.432 444.059 121.792 445.019 120.512C445.979 119.232 446.459 116.896 446.459 113.504V103.04C446.459 99.008 445.819 96.224 444.539 94.688C443.259 93.088 441.435 92.288 439.067 92.288C437.531 92.288 436.027 92.896 434.555 94.112C433.147 95.264 431.995 96.992 431.099 99.296C430.203 101.536 429.755 104.352 429.755 107.744V114.08C429.755 117.344 430.171 119.552 431.003 120.704C431.899 121.856 433.307 122.432 435.227 122.432C435.611 123.328 435.835 124.224 435.899 125.12C435.963 126.016 435.995 127.072 435.995 128.288C435.099 128.224 433.883 128.16 432.347 128.096C430.811 128.096 429.211 128.064 427.547 128C425.947 128 424.411 128 422.939 128C421.467 128 419.835 128 418.043 128C416.251 128.064 414.523 128.096 412.859 128.096C411.195 128.16 409.883 128.224 408.923 128.288C408.923 127.072 408.987 125.952 409.115 124.928C409.243 123.904 409.435 123.072 409.691 122.432C412.187 122.432 413.851 121.856 414.683 120.704C415.579 119.488 416.027 117.28 416.027 114.08V99.584L429.755 88.352C429.755 89.12 429.659 90.016 429.467 91.04C429.339 92 429.115 93.024 428.795 94.112C429.179 93.344 429.563 92.576 429.947 91.808C430.331 91.04 430.843 90.304 431.483 89.6C432.763 88.128 434.555 86.784 436.859 85.568C439.163 84.288 441.819 83.648 444.827 83.648C447.515 83.648 450.011 84.16 452.315 85.184C454.683 86.208 456.571 87.872 457.979 90.176C459.451 92.48 460.187 95.52 460.187 99.296V114.08ZM489.329 83.168C490.801 83.168 492.145 83.296 493.361 83.552C494.641 83.744 495.985 84.032 497.393 84.416V93.344C496.241 91.936 495.025 90.848 493.745 90.08C492.529 89.248 490.993 88.832 489.137 88.832C487.921 88.832 486.609 89.088 485.201 89.6C483.857 90.048 482.577 90.912 481.361 92.192C480.145 93.408 479.153 95.2 478.385 97.568C477.617 99.872 477.233 102.848 477.233 106.496C477.233 109.504 477.617 112.096 478.385 114.272C479.217 116.448 480.305 118.144 481.649 119.36C482.993 120.512 484.529 121.088 486.257 121.088C487.921 121.088 489.521 120.576 491.057 119.552C492.593 118.464 493.841 116.736 494.801 114.368C495.825 111.936 496.337 108.736 496.337 104.768L500.081 114.56C499.057 117.056 498.097 119.008 497.201 120.416C496.305 121.76 495.441 122.784 494.609 123.488C493.969 124.256 493.009 125.056 491.729 125.888C490.513 126.72 489.073 127.424 487.409 128C485.745 128.576 483.921 128.864 481.937 128.864C478.289 128.864 475.025 128.16 472.145 126.752C469.329 125.344 467.121 123.136 465.521 120.128C463.921 117.12 463.121 113.248 463.121 108.512C463.121 103.648 464.209 99.296 466.385 95.456C468.561 91.616 471.601 88.608 475.505 86.432C479.473 84.256 484.081 83.168 489.329 83.168ZM509.969 111.968C509.969 113.952 510.097 115.52 510.353 116.672C510.609 117.76 511.153 118.528 511.985 118.976C512.817 119.424 514.033 119.648 515.633 119.648C515.761 120.672 515.761 121.728 515.633 122.816C515.505 123.84 515.217 124.8 514.769 125.696C512.465 125.76 510.033 126.08 507.473 126.656C504.977 127.168 502.673 127.904 500.561 128.864C499.537 128.416 498.769 127.808 498.257 127.04C497.745 126.272 497.489 125.056 497.489 123.392C497.489 122.112 497.617 120.832 497.873 119.552C498.193 118.272 498.609 116.768 499.121 115.04L509.969 111.968ZM509.969 73.184V115.52H496.337V73.184H509.969ZM507.185 59.168C508.017 59.488 508.689 60.064 509.201 60.896C509.713 61.664 509.969 62.784 509.969 64.256V76.448H496.337V74.624C496.337 73.088 496.145 71.84 495.761 70.88C495.441 69.92 494.769 69.216 493.745 68.768C492.721 68.256 491.185 67.936 489.137 67.808C489.137 66.848 489.201 65.92 489.329 65.024C489.521 64.064 489.809 63.168 490.193 62.336C492.369 62.336 494.577 62.176 496.817 61.856C499.057 61.536 501.105 61.152 502.961 60.704C504.881 60.192 506.289 59.68 507.185 59.168Z" fill="white"/>
</svg>
